PathFileType  4	(X/Y/Z) C:\Users\antoi\Documents\MyRepositories\mobilecap\ResultsAnalysis
DataRate	CameraRate	NumFrames	NumMarkers	Units	OrigDataRate	OrigDataStartFrame	OrigNumFrames
100.0	100.0	4	51	mm	100.0	149	237
Frame#	Time	r_knee			r_shank_antsup			r_ankle			r_calc			r_5meta			r_toe			L_knee			L_shank_antsup			L_ankle			L_calc			L_5meta			L_toe			r_sh2			r_sh3			r_sh4			L_sh2			L_sh3			r_thigh1			r_thigh2			r_thigh3			r_thigh4			r_thigh5			L_thigh1			L_thigh2			L_thigh3			L_thigh4			r.ASIS			r.PSIS			L.ASIS			L.PSIS			C7			R_Shoulder			L_Shoulder			R_Sternum			L_Sternum			R_humerus			R_elbow_med			R_elbow_lat			R_forearm			R_wrist_radius			R_wrist_ulna			L_humerus			L_elbow_med			L_elbow_lat			L_forearm			L_wrist_radius			L_wrist_ulna			R_HJC			L_HJC			R_HJC_reg			L_HJC_reg			
		X1	Y1	Z1	X2	Y2	Z2	X3	Y3	Z3	X4	Y4	Z4	X5	Y5	Z5	X6	Y6	Z6	X7	Y7	Z7	X8	Y8	Z8	X9	Y9	Z9	X10	Y10	Z10	X11	Y11	Z11	X12	Y12	Z12	X13	Y13	Z13	X14	Y14	Z14	X15	Y15	Z15	X16	Y16	Z16	X17	Y17	Z17	X18	Y18	Z18	X19	Y19	Z19	X20	Y20	Z20	X21	Y21	Z21	X22	Y22	Z22	X23	Y23	Z23	X24	Y24	Z24	X25	Y25	Z25	X26	Y26	Z26	X27	Y27	Z27	X28	Y28	Z28	X29	Y29	Z29	X30	Y30	Z30	X31	Y31	Z31	X32	Y32	Z32	X33	Y33	Z33	X34	Y34	Z34	X35	Y35	Z35	X36	Y36	Z36	X37	Y37	Z37	X38	Y38	Z38	X39	Y39	Z39	X40	Y40	Z40	X41	Y41	Z41	X42	Y42	Z42	X43	Y43	Z43	X44	Y44	Z44	X45	Y45	Z45	X46	Y46	Z46	X47	Y47	Z47	X48	Y48	Z48	X49	Y49	Z49	X50	Y50	Z50	X51	Y51	Z51	

149	1.48000000	-121.51665	405.60646	-420.64884	-123.16147	340.78632	-397.87391	-285.27573	90.45900	-448.08926	-361.24409	59.84180	-491.15866	-195.61231	43.21224	-414.42036	-146.92295	60.85449	-468.14029	-102.38055	395.48687	-786.28303	-82.91173	321.86060	-791.70473	-281.90994	96.21553	-764.99282	-359.64798	62.35885	-720.55413	-197.65730	41.83914	-794.83007	-145.59616	60.53621	-739.15745	-176.19945	239.97086	-399.83838	-187.41806	375.26281	-414.43483	-248.37447	276.59323	-419.49233	-155.95429	371.11957	-810.77472	-213.99930	263.33742	-807.92745	-378.35985	558.23888	-441.99466	-270.89453	527.65908	-427.14714	-266.49715	476.04064	-386.73380	-411.54286	473.51123	-380.28948	-302.95741	431.61344	-388.85116	-343.43719	541.13989	-763.61517	-212.03549	507.33944	-772.47041	-380.59714	432.89835	-789.96844	-240.33200	404.03465	-793.56998	-398.24649	560.01580	-450.81562	-548.59686	623.43168	-548.28908	-358.88001	547.65752	-706.02778	-535.30039	617.32840	-654.58806	-143.32293	908.92913	-558.22377	-115.99921	815.74480	-417.51816	-92.34714	835.16584	-688.07402	-104.64088	754.69435	-527.65882	-95.99818	758.36612	-569.26338	-86.50630	617.39413	-328.73027	-96.89702	497.11638	-370.66492	-74.36907	533.19419	-303.80520	25.35610	569.01082	-361.44669	106.81325	596.76520	-424.79106	130.93707	558.60451	-414.63702	-67.68318	737.78755	-755.93064	-108.82484	528.41426	-827.21284	-75.69877	569.10732	-879.56441	-1.74554	607.77284	-796.57632	51.55791	627.86316	-694.18723	79.60881	605.91330	-707.44281	-473.93483	503.78153	-487.48283	-441.73095	497.01385	-685.05300	-472.58646	498.02326	-493.49016	-451.44387	488.31707	-662.52389	
150	1.49000000	-117.94463	404.09357	-421.13648	-120.42384	338.94955	-398.45457	-285.10864	90.39507	-448.20818	-361.22235	59.89796	-491.14745	-195.59543	43.21759	-414.41457	-146.92332	60.80691	-468.13945	-98.77214	393.63383	-786.01471	-79.98445	319.69990	-791.51503	-281.77247	96.15581	-764.82983	-359.59539	62.51548	-720.54455	-197.64806	41.81622	-794.84733	-145.51149	60.44340	-739.27361	-174.23591	238.68394	-400.28929	-184.60525	373.91833	-414.52953	-246.18936	275.75381	-419.25486	-152.52667	369.64988	-811.01133	-211.61143	262.52755	-808.10191	-375.00093	555.99684	-443.08994	-267.52193	525.54662	-428.45721	-262.97924	474.02514	-387.43745	-408.11364	471.03447	-380.32633	-299.46269	429.32510	-389.35815	-339.77879	540.11057	-762.01501	-208.61042	506.39874	-771.09168	-376.97847	432.78336	-791.09536	-236.83962	403.50469	-794.35592	-395.00204	557.13783	-450.98816	-545.57587	620.51640	-548.69718	-355.28088	545.61165	-705.78641	-532.14546	614.35213	-655.06140	-138.61411	906.03240	-558.10417	-110.10257	813.15291	-419.04872	-86.58868	832.96423	-686.45885	-101.80683	750.39056	-528.02461	-93.26699	754.12852	-569.81865	-66.99508	617.94280	-334.24523	-69.15445	498.04039	-377.69629	-47.10702	534.90638	-311.57640	47.45594	580.87556	-371.55436	124.34593	616.07252	-436.19836	151.02285	578.97756	-429.14710	-54.12089	739.41647	-752.91424	-75.82151	527.47752	-824.07337	-44.35696	570.72754	-875.59533	22.85214	615.50315	-789.88802	70.17678	640.91741	-686.02831	100.25632	620.96681	-697.81974	-470.60970	500.84923	-487.86299	-437.93812	494.54520	-685.37197	-469.20046	495.66806	-493.66270	-447.89371	485.88704	-662.40963	
151	1.50000000	-114.64954	402.78145	-421.74385	-118.05653	337.41800	-398.95339	-284.97700	90.40212	-448.25094	-361.19337	60.00726	-491.18909	-195.62144	43.20028	-414.43960	-146.91374	60.74048	-468.15764	-95.33766	391.90468	-785.99454	-77.14874	317.43136	-791.25096	-281.57035	96.27488	-765.00037	-359.60761	62.59639	-720.56947	-197.65584	41.77591	-794.86752	-145.46521	60.41666	-739.35749	-172.60827	237.54174	-400.72135	-182.19059	373.05047	-415.00207	-244.26940	275.20597	-419.48787	-149.16215	367.90957	-811.57483	-209.28349	261.54067	-808.69229	-371.32585	554.22877	-444.70774	-263.91087	523.77194	-429.99427	-259.49932	472.46390	-388.21087	-404.54706	469.45556	-380.58705	-295.91110	427.79100	-389.77542	-335.75514	540.15599	-759.89053	-205.05332	506.14523	-769.53525	-373.45576	433.86431	-792.01484	-233.45804	403.98551	-795.52179	-391.29838	555.71971	-450.34321	-542.49703	618.66821	-548.67152	-351.64860	544.48725	-705.72468	-529.10832	612.53627	-655.04511	-134.25182	904.68384	-557.84056	-104.52358	812.90581	-421.09213	-81.26078	832.76061	-683.83443	-98.98467	747.92766	-528.42064	-90.40992	752.03217	-570.23861	-48.16455	622.15112	-338.28681	-40.75981	506.67263	-386.12545	-20.44449	541.19250	-317.62426	68.21045	595.79479	-379.89485	140.01218	637.68863	-446.17621	169.06231	602.11352	-442.01507	-41.42980	744.04501	-749.69679	-43.76287	531.29430	-820.95093	-14.24626	577.22098	-871.70537	45.87057	627.14285	-783.60513	87.43730	656.78430	-678.79693	119.29043	638.89786	-689.29824	-466.91662	499.23695	-487.68105	-434.16559	493.07715	-685.18217	-465.44973	493.95717	-493.07696	-444.16397	484.20930	-662.19606	
152	1.51000000	-111.43597	401.73095	-422.28654	-115.86020	336.25791	-399.27360	-284.88639	90.49026	-448.29929	-361.14536	60.21635	-491.29886	-195.61626	43.23952	-414.45871	-146.89686	60.64433	-468.21187	-92.12709	390.27155	-786.35001	-74.61978	315.29320	-791.22567	-281.29767	96.43727	-765.27048	-359.64614	62.62074	-720.58013	-197.68480	41.70662	-794.91116	-145.47977	60.39492	-739.44184	-171.24161	236.79130	-401.04625	-179.61189	372.50851	-415.57251	-242.59259	275.15372	-420.09306	-146.04491	366.13842	-812.17229	-207.20249	260.35683	-809.16751	-367.82391	552.83326	-445.87811	-260.48416	522.38800	-430.94517	-256.11802	471.38012	-388.85722	-401.03395	468.62788	-380.94078	-292.44328	426.90224	-390.09473	-331.60547	540.50405	-758.01699	-201.27072	505.95404	-768.21491	-370.06214	435.23029	-792.79476	-230.18090	404.63455	-796.66684	-387.68145	555.30349	-449.50733	-539.32105	618.03006	-548.19134	-348.16995	543.96847	-705.75266	-526.03155	612.07084	-654.59454	-130.24104	904.86560	-557.44036	-99.19125	814.93516	-423.59505	-76.33769	834.53106	-680.80578	-96.09018	747.33755	-528.83656	-87.47198	751.85640	-570.71239	-29.97722	629.83187	-341.07700	-12.14593	525.61035	-398.72018	5.46226	551.59046	-322.29262	87.54558	613.23570	-386.62767	153.79971	661.34940	-454.64383	185.21529	627.71604	-452.67299	-29.63851	751.15427	-746.59798	-12.76894	539.60241	-817.80831	14.37016	587.99221	-867.70140	67.41563	642.28345	-777.80920	103.35866	675.17838	-672.05352	136.80329	659.44141	-681.59851	-463.37963	498.73423	-487.21501	-430.80648	492.56983	-684.74490	-461.86239	492.94016	-492.37943	-440.66714	483.43674	-662.08097	
